<svg version="1.1" id="Layer_1" xmlns="http://www.w3.org/2000/svg" xmlns:xlink="http://www.w3.org/1999/xlink" x="0px" y="0px"
	 width="100%" viewBox="0 0 528 368" enable-background="new 0 0 528 368" xml:space="preserve">
<path fill="white" opacity="1.000000" stroke="none" 
	d="
M79.312973,308.592285 
	C86.890381,316.912964 96.318886,317.917419 106.194359,316.131531 
	C125.345573,312.668182 140.878677,302.197540 155.221527,289.720154 
	C160.114716,285.463409 164.948639,281.071899 168.540024,275.568481 
	C174.279785,266.772980 176.034225,257.140778 173.656448,246.982544 
	C171.654129,238.428223 165.205505,233.042313 158.182114,228.841431 
	C146.193359,221.670639 133.781570,215.208878 121.573761,208.402145 
	C99.394272,196.035492 93.202942,174.115829 105.928551,151.874496 
	C124.114441,120.089897 151.750046,100.248360 186.825943,91.593994 
	C199.151611,88.552856 212.628754,88.534340 224.701889,95.683067 
	C239.563095,104.482651 243.398651,117.711632 242.171448,132.077087 
	C241.077667,144.880859 236.514084,156.634399 227.606888,166.370438 
	C219.388077,175.354019 210.244659,182.828827 198.074661,185.812866 
	C196.081055,186.301682 194.109421,186.454575 192.139603,186.275131 
	C188.911377,185.981049 185.550385,185.211807 184.347443,181.835190 
	C183.047867,178.187332 186.664688,177.044464 188.776779,175.541031 
	C205.832855,163.400146 218.753494,148.246582 224.136032,127.555061 
	C224.881165,124.690666 225.619232,121.628838 225.375061,118.741753 
	C224.792984,111.859291 219.348190,107.852249 211.290512,107.329887 
	C201.184494,106.674767 191.580368,108.954788 182.819702,113.475838 
	C162.336868,124.046249 144.161667,137.601517 131.149979,157.112747 
	C122.060699,170.742249 125.064583,184.737656 138.774460,193.795288 
	C147.274963,199.411285 156.628204,203.456482 165.396255,208.566467 
	C174.912506,214.112534 184.106384,220.030090 190.792206,229.147018 
	C202.381912,244.950958 202.668137,262.011353 194.368011,278.669006 
	C179.925354,307.654053 155.837708,325.352661 124.523148,332.675995 
	C106.907486,336.795654 89.259148,336.333252 72.400169,328.281006 
	C60.086315,322.399597 51.518681,313.745483 49.294312,299.710175 
	C48.198040,292.792908 50.119781,286.217804 52.579750,280.271301 
	C62.534904,256.206543 95.117439,236.696625 117.281639,237.668091 
	C117.780907,237.689972 118.281631,237.684921 118.780167,237.716339 
	C121.190567,237.868256 122.953896,238.896896 123.425552,241.421341 
	C123.872009,243.810944 122.504036,245.030472 120.498039,246.004257 
	C112.392883,249.938843 104.700172,254.551254 97.726791,260.298096 
	C88.268837,268.092499 81.390114,277.705780 77.237946,289.260620 
	C74.846481,295.915710 74.914803,302.302765 79.312973,308.592285 
z"/>
<path fill="white" opacity="1.000000" stroke="none" 
	d="
M255.759338,209.350555 
	C248.403946,225.080185 240.641815,240.182175 234.407990,255.982498 
	C233.233109,258.960388 230.453522,262.661987 233.858765,265.026520 
	C237.201843,267.347870 239.443298,263.262787 241.496368,261.160675 
	C255.459534,246.863876 264.830475,230.067673 271.062164,210.952286 
	C280.364288,182.418564 292.842804,155.207428 309.146576,129.835617 
	C315.304626,120.252449 321.646454,110.987457 330.780487,103.951645 
	C335.896423,100.010902 341.345093,98.177399 347.465912,101.347137 
	C353.317139,104.377251 355.057678,109.771866 355.357727,115.911537 
	C356.162964,132.386276 349.906250,146.841110 342.201935,160.757080 
	C328.404694,185.678452 310.421173,207.444992 290.723572,227.868988 
	C284.715027,234.099091 284.201019,242.608658 281.446960,250.187912 
	C281.223450,250.802963 281.257721,251.506622 281.101410,252.151962 
	C280.137939,256.129822 279.088928,260.637299 283.274567,262.964996 
	C287.312347,265.210510 290.914673,262.195953 293.992859,259.598755 
	C300.919037,253.754837 306.515198,246.775772 311.420776,239.162521 
	C321.005219,224.288010 329.888092,209.109100 334.749573,191.894623 
	C336.398163,186.056915 339.737122,184.331726 345.696747,185.571701 
	C356.923706,187.907623 360.138702,193.287354 355.809692,203.800827 
	C350.050415,217.787979 342.914307,231.211563 338.666077,245.814789 
	C337.666199,249.251968 335.402252,253.419815 339.110840,255.917160 
	C343.069183,258.582733 345.224548,253.980865 347.598450,251.816177 
	C357.612640,242.684525 363.060364,230.816391 367.675537,218.339523 
	C372.564056,205.123856 376.425110,191.832611 375.890259,177.535721 
	C375.718018,172.931580 377.977631,171.769272 382.415710,173.521881 
	C390.246399,176.614243 393.125580,181.690826 392.205994,190.958267 
	C391.498138,198.092239 390.225403,205.137650 387.212738,211.683228 
	C378.553009,230.497971 368.972321,248.703613 353.591705,263.182831 
	C346.340668,270.008881 338.303131,274.163818 328.052917,273.385040 
	C322.435486,272.958282 318.668335,270.451385 316.832123,265.145416 
	C315.150787,260.286987 314.725403,255.187607 314.466949,249.706207 
	C311.171997,250.618652 310.428162,253.280762 308.919708,255.058533 
	C302.661987,262.433563 296.216187,269.557312 287.971344,274.845490 
	C274.849640,283.261627 261.743988,277.359650 259.772736,261.931213 
	C259.422058,259.186432 258.097412,256.502380 259.196198,253.247360 
	C252.273315,262.087738 245.675476,270.597137 237.265106,277.464142 
	C234.098724,280.049500 230.509949,281.957367 226.482788,282.250519 
	C214.599670,283.115540 209.745605,275.643250 210.973724,262.913971 
	C212.457047,247.539658 220.154114,234.209412 225.454391,220.086288 
	C228.836166,211.075256 234.172836,202.835464 235.953888,193.188293 
	C236.300522,191.310654 237.574509,190.075760 239.697342,189.684509 
	C250.876068,187.624329 258.876892,195.645294 256.414215,206.528732 
	C256.230682,207.339828 256.062988,208.154541 255.759338,209.350555 
M314.313629,186.831802 
	C328.188843,165.858536 340.256592,144.075653 346.033112,119.474709 
	C345.287140,119.111389 344.541138,118.748062 343.795135,118.384743 
	C323.703278,144.951614 308.661438,174.246277 297.511993,205.699661 
	C305.022949,201.294495 308.988464,193.944611 314.313629,186.831802 
z"/>
<path fill="white" opacity="1.000000" stroke="none" 
	d="
M383.233337,335.258484 
	C393.065186,324.080963 400.919464,311.897491 408.939606,299.847992 
	C411.970306,295.294617 411.250305,294.301971 405.660828,294.200134 
	C377.115021,293.680084 348.973358,297.219727 321.027466,302.673157 
	C281.398560,310.406464 243.217590,322.897736 205.803055,337.878204 
	C202.099533,339.361115 198.579559,341.304565 194.869614,342.768829 
	C186.135880,346.216034 182.941956,341.339508 182.991653,334.295929 
	C183.041122,327.285492 186.116272,321.524994 193.031311,318.341766 
	C202.753891,313.866119 212.886169,310.521881 223.219696,308.011841 
	C240.323486,303.857269 257.535004,300.113525 274.779388,296.578430 
	C297.737122,291.872070 320.892181,288.562592 344.273956,286.531219 
	C360.394318,285.130707 376.491608,284.863800 392.629456,284.671021 
	C398.825897,284.597015 404.893402,285.717041 411.048309,285.946625 
	C414.745972,286.084564 417.066162,285.190094 418.846436,281.436432 
	C423.984100,270.603760 429.135437,259.784241 433.890991,248.775787 
	C434.588379,247.161392 434.713531,245.601410 434.597473,243.192886 
	C429.111420,248.213348 425.772095,254.395920 420.651245,258.973755 
	C416.393158,262.780334 411.998383,266.309082 406.593201,268.295502 
	C401.261810,270.254822 395.915497,270.068848 391.462585,266.387878 
	C386.542175,262.320404 384.477203,256.658081 385.296906,250.335571 
	C386.861206,238.269928 392.728088,227.650650 396.983978,216.474106 
	C401.490967,204.638138 408.611237,193.965881 412.115295,181.709686 
	C412.377563,180.792389 412.877747,179.659836 413.620331,179.209503 
	C418.160248,176.456619 422.721375,178.297165 427.068024,179.744385 
	C430.427795,180.863022 432.176178,183.472687 432.432220,187.348953 
	C432.925354,194.815628 429.378510,200.905182 426.239563,207.098846 
	C419.914337,219.579712 413.689392,232.091583 409.047058,245.322891 
	C408.606628,246.578201 408.226929,247.854691 407.808777,249.117935 
	C407.304901,250.639999 407.224762,252.172867 408.595764,253.225418 
	C409.923492,254.244766 411.571838,253.996323 412.853760,253.200562 
	C414.676880,252.068848 416.620850,250.872955 417.949982,249.244736 
	C430.184021,234.257568 441.399261,218.592606 449.489990,200.889236 
	C451.986542,195.426498 452.959961,189.447830 455.584991,184.008423 
	C458.604156,177.752319 461.669037,175.552078 467.298401,176.492599 
	C473.489471,177.527008 477.738464,182.216827 478.412201,188.205505 
	C479.097260,194.295227 476.744690,199.640442 474.793762,205.092377 
	C468.626251,222.327560 462.512024,239.583740 456.121307,256.736450 
	C452.238251,267.158661 447.882904,277.404907 443.496033,288.337463 
	C448.491577,289.882568 453.185486,291.314514 457.866272,292.787994 
	C462.179535,294.145721 466.297791,295.914856 469.894501,298.729828 
	C472.265625,300.585602 473.405548,303.248688 472.010559,305.767761 
	C470.512360,308.473236 467.694916,307.372681 465.327515,306.458801 
	C457.720978,303.522522 450.138824,300.554108 442.303284,298.214233 
	C439.024902,297.235260 437.487640,298.104767 435.883820,300.769379 
	C429.788788,310.895569 423.752930,321.091064 416.431335,330.389343 
	C410.759644,337.592255 404.366516,344.132660 396.412537,348.970520 
	C391.162506,352.163757 385.487335,352.923157 379.580139,352.196289 
	C374.766785,351.604004 373.118469,347.983063 375.913757,343.892822 
	C377.965118,340.891235 380.614471,338.298309 383.233337,335.258484 
z"/>
<path fill="white" opacity="1.000000" stroke="none" 
	d="
M276.332886,156.117706 
	C275.970245,166.463486 269.155457,175.409866 259.657196,178.449432 
	C252.691910,180.678391 245.605118,175.328903 245.802826,167.991379 
	C246.035995,159.338715 255.157898,148.533737 263.628601,146.876587 
	C270.648560,145.503281 275.350555,148.762375 276.332886,156.117706 
z"/>
</svg>