<svg width="149" height="303" viewBox="0 0 149 303" fill="none" xmlns="http://www.w3.org/2000/svg">
<path d="M69.5 84.0267V108C69.5 109.105 70.3954 110 71.5 110H94.5C95.6046 110 96.5 109.105 96.5 108V82.1681C96.5 81 95.5032 80.0805 94.3389 80.1746L71.3389 82.0332C70.3002 82.1172 69.5 82.9846 69.5 84.0267Z" fill="white"/>
<path d="M148 108.5H132.5V55L82 16.5L26.5 59L23 65L21.5 83.5L25.5 96L38.5 111.5L59.5 125L79.5 136.5L97.5 146L117 157.5L132.5 172L140.5 182L145.5 190.5L148.5 201L149 214.5L147.5 222L144.5 229.5L136.5 242L59 303H54.5L52.5 301.5L50.5 299.5V266.5L25 245.5L31.5 238.5L60 261.5V290.5L72 281L71 240.5L23.5 197L29 190.5L31 192L80.5 236.5V271L104 251L119 236.5L127 225.5L130.5 214.5L129.5 201L125.5 190.5L119 182L107 172L83 157.5L62.5 146L44 136.5L27 125L15 111.5L7 96L5 83.5L6 65L13.5 50.5L21 42.5L76.5 0.5L80.5 0L90.5 2.5L146.5 45L148 49V108.5Z" fill="white"/>
<path d="M31 184.5C31 193.06 24.0604 200 15.5 200C6.93959 200 0 193.06 0 184.5C0 175.94 6.93959 169 15.5 169C24.0604 169 31 175.94 31 184.5ZM8.9231 184.5C8.9231 188.132 11.8677 191.077 15.5 191.077C19.1323 191.077 22.0769 188.132 22.0769 184.5C22.0769 180.868 19.1323 177.923 15.5 177.923C11.8677 177.923 8.9231 180.868 8.9231 184.5Z" fill="#FDF3F3"/>
<path d="M31 233.5C31 242.06 24.0604 249 15.5 249C6.93959 249 0 242.06 0 233.5C0 224.94 6.93959 218 15.5 218C24.0604 218 31 224.94 31 233.5ZM8.9231 233.5C8.9231 237.132 11.8677 240.077 15.5 240.077C19.1323 240.077 22.0769 237.132 22.0769 233.5C22.0769 229.868 19.1323 226.923 15.5 226.923C11.8677 226.923 8.9231 229.868 8.9231 233.5Z" fill="#FDF3F3"/>
</svg>
